<?xml version="1.0" encoding="UTF-8" standalone="no"?>
<!DOCTYPE svg PUBLIC "-//W3C//DTD SVG 1.1//EN"
 "http://www.w3.org/Graphics/SVG/1.1/DTD/svg11.dtd">
<!-- Generated by graphviz version 2.47.3 (20210619.1520)
 -->
<!-- Pages: 1 -->
<svg width="694pt" height="800pt"
 viewBox="0.00 0.00 694.00 800.00" xmlns="http://www.w3.org/2000/svg" xmlns:xlink="http://www.w3.org/1999/xlink">
<g id="graph0" class="graph" transform="scale(1 1) rotate(0) translate(4 796)">
<polygon fill="white" stroke="transparent" points="-4,4 -4,-796 690,-796 690,4 -4,4"/>
<g id="clust1" class="cluster">
<title>cluster_datalake</title>
<polygon fill="none" stroke="transparent" points="237,-701 237,-784 482,-784 482,-701 237,-701"/>
</g>
<g id="clust2" class="cluster">
<title>cluster_spark</title>
<polygon fill="#fae9e1" stroke="#e58e61" points="16,-481 16,-693 484,-693 484,-481 16,-481"/>
<text text-anchor="start" x="248" y="-678.8" font-family="Helvetica,sans-Serif" font-size="14.00"> </text>
<text text-anchor="start" x="177.5" y="-664.8" font-family="Helvetica,sans-Serif" font-weight="bold" font-size="14.00">Spark on Kubernetes</text>
<text text-anchor="start" x="318.5" y="-664.8" font-family="Helvetica,sans-Serif" font-size="14.00"> </text>
</g>
<g id="clust3" class="cluster">
<title>cluster_spark2</title>
<polygon fill="#fae9e1" stroke="#e58e61" points="492,-481 492,-690 678,-690 678,-481 492,-481"/>
<text text-anchor="start" x="583" y="-675.8" font-family="Helvetica,sans-Serif" font-size="14.00"> </text>
<text text-anchor="start" x="547" y="-661.8" font-family="Helvetica,sans-Serif" font-weight="bold" font-size="14.00">Databricks</text>
<text text-anchor="start" x="619" y="-661.8" font-family="Helvetica,sans-Serif" font-size="14.00"> </text>
</g>
<g id="clust4" class="cluster">
<title>cluster_database</title>
<polygon fill="none" stroke="transparent" points="180,-390 180,-473 436,-473 436,-390 180,-390"/>
</g>
<g id="clust5" class="cluster">
<title>cluster_api</title>
<polygon fill="#f1f7dc" stroke="#b0c272" points="198,-170 198,-382 436,-382 436,-170 198,-170"/>
<text text-anchor="start" x="315" y="-367.8" font-family="Helvetica,sans-Serif" font-size="14.00"> </text>
<text text-anchor="start" x="303" y="-353.8" font-family="Helvetica,sans-Serif" font-weight="bold" font-size="14.00">API</text>
<text text-anchor="start" x="327" y="-353.8" font-family="Helvetica,sans-Serif" font-size="14.00"> </text>
</g>
<g id="clust6" class="cluster">
<title>cluster_consumer</title>
<polygon fill="#e6f5ff" stroke="#3d6e8d" points="8,-8 8,-162 500,-162 500,-8 8,-8"/>
<text text-anchor="start" x="252" y="-147.8" font-family="Helvetica,sans-Serif" font-size="14.00"> </text>
<text text-anchor="start" x="194" y="-133.8" font-family="Helvetica,sans-Serif" font-weight="bold" font-size="14.00">Signal Consumer</text>
<text text-anchor="start" x="310" y="-133.8" font-family="Helvetica,sans-Serif" font-size="14.00"> </text>
</g>
<!-- datalake -->
<g id="node1" class="node">
<title>datalake</title>
<path fill="#b7d6d9" stroke="black" d="M461.5,-757.23C461.5,-759.03 446.04,-760.5 427,-760.5 407.96,-760.5 392.5,-759.03 392.5,-757.23 392.5,-757.23 392.5,-727.77 392.5,-727.77 392.5,-725.97 407.96,-724.5 427,-724.5 446.04,-724.5 461.5,-725.97 461.5,-727.77 461.5,-727.77 461.5,-757.23 461.5,-757.23"/>
<path fill="none" stroke="black" d="M461.5,-757.23C461.5,-755.42 446.04,-753.95 427,-753.95 407.96,-753.95 392.5,-755.42 392.5,-757.23"/>
<text text-anchor="middle" x="427" y="-738.8" font-family="Helvetica,sans-Serif" font-size="14.00">datalake</text>
</g>
<!-- b -->
<g id="node3" class="node">
<title>b</title>
<polygon fill="none" stroke="black" points="400,-587.5 400,-623.5 454,-623.5 454,-587.5 400,-587.5"/>
<text text-anchor="middle" x="427" y="-601.8" font-family="Helvetica,sans-Serif" font-size="14.00">b</text>
</g>
<!-- datalake&#45;&gt;b -->
<g id="edge7" class="edge">
<title>datalake&#45;&gt;b</title>
<path fill="none" stroke="black" d="M427,-724.4C427,-701.6 427,-660.98 427,-633.89"/>
<polygon fill="black" stroke="black" points="430.5,-633.89 427,-623.89 423.5,-633.89 430.5,-633.89"/>
</g>
<!-- a -->
<g id="node4" class="node">
<title>a</title>
<polygon fill="none" stroke="black" points="328,-587.5 328,-623.5 382,-623.5 382,-587.5 328,-587.5"/>
<text text-anchor="middle" x="355" y="-601.8" font-family="Helvetica,sans-Serif" font-size="14.00">a</text>
</g>
<!-- datalake&#45;&gt;a -->
<g id="edge6" class="edge">
<title>datalake&#45;&gt;a</title>
<path fill="none" stroke="black" d="M412.58,-724.24C405.51,-715.28 397.21,-703.94 391,-693 380.12,-673.85 370.68,-650.75 364.2,-633.24"/>
<polygon fill="black" stroke="black" points="367.42,-631.87 360.73,-623.65 360.84,-634.25 367.42,-631.87"/>
</g>
<!-- c -->
<g id="node5" class="node">
<title>c</title>
<polygon fill="none" stroke="black" points="256,-587.5 256,-623.5 310,-623.5 310,-587.5 256,-587.5"/>
<text text-anchor="middle" x="283" y="-601.8" font-family="Helvetica,sans-Serif" font-size="14.00">c</text>
</g>
<!-- datalake&#45;&gt;c -->
<g id="edge8" class="edge">
<title>datalake&#45;&gt;c</title>
<path fill="none" stroke="black" d="M413.3,-724.2C405.62,-715.76 395.33,-706.32 384,-701 357.65,-688.63 342.18,-710.6 319,-693 300.33,-678.83 291.27,-653.2 286.92,-633.51"/>
<polygon fill="black" stroke="black" points="290.33,-632.72 285,-623.57 283.46,-634.05 290.33,-632.72"/>
</g>
<!-- e -->
<g id="node8" class="node">
<title>e</title>
<polygon fill="none" stroke="black" points="594,-587.5 594,-623.5 648,-623.5 648,-587.5 594,-587.5"/>
<text text-anchor="middle" x="621" y="-601.8" font-family="Helvetica,sans-Serif" font-size="14.00">e</text>
</g>
<!-- datalake&#45;&gt;e -->
<g id="edge10" class="edge">
<title>datalake&#45;&gt;e</title>
<path fill="none" stroke="black" d="M461.67,-739.29C496.79,-735.3 550.69,-724.15 585,-693 602.07,-677.5 611.28,-652.65 616.09,-633.55"/>
<polygon fill="black" stroke="black" points="619.54,-634.15 618.34,-623.63 612.71,-632.61 619.54,-634.15"/>
</g>
<!-- d -->
<g id="node9" class="node">
<title>d</title>
<polygon fill="none" stroke="black" points="522,-587.5 522,-623.5 576,-623.5 576,-587.5 522,-587.5"/>
<text text-anchor="middle" x="549" y="-601.8" font-family="Helvetica,sans-Serif" font-size="14.00">d</text>
</g>
<!-- datalake&#45;&gt;d -->
<g id="edge9" class="edge">
<title>datalake&#45;&gt;d</title>
<path fill="none" stroke="black" d="M451.22,-724.76C462.99,-716.01 476.95,-704.71 488,-693 505.51,-674.45 521.96,-650.59 533.36,-632.63"/>
<polygon fill="black" stroke="black" points="536.52,-634.17 538.84,-623.83 530.58,-630.47 536.52,-634.17"/>
</g>
<!-- note1 -->
<g id="node2" class="node">
<title>note1</title>
<polygon fill="lightyellow" stroke="black" points="368.5,-764 257.5,-764 257.5,-721 374.5,-721 374.5,-758 368.5,-764"/>
<polyline fill="none" stroke="black" points="368.5,-764 368.5,-758 "/>
<polyline fill="none" stroke="black" points="374.5,-758 368.5,-758 "/>
<text text-anchor="start" x="271.5" y="-738.8" font-family="Helvetica,sans-Serif" font-size="14.00">The datalake. </text>
</g>
<!-- signals -->
<g id="node6" class="node">
<title>signals</title>
<polygon fill="none" stroke="black" points="333,-511.5 333,-547.5 393,-547.5 393,-511.5 333,-511.5"/>
<text text-anchor="middle" x="363" y="-525.8" font-family="Helvetica,sans-Serif" font-size="14.00">signals</text>
</g>
<!-- b&#45;&gt;signals -->
<g id="edge2" class="edge">
<title>b&#45;&gt;signals</title>
<path fill="none" stroke="black" d="M412.16,-587.34C403.92,-577.81 393.52,-565.79 384.42,-555.26"/>
<polygon fill="black" stroke="black" points="386.95,-552.84 377.76,-547.57 381.66,-557.42 386.95,-552.84"/>
</g>
<!-- a&#45;&gt;signals -->
<g id="edge1" class="edge">
<title>a&#45;&gt;signals</title>
<path fill="none" stroke="black" d="M356.86,-587.34C357.8,-578.56 358.98,-567.66 360.05,-557.77"/>
<polygon fill="black" stroke="black" points="363.56,-557.89 361.15,-547.57 356.6,-557.14 363.56,-557.89"/>
</g>
<!-- c&#45;&gt;signals -->
<g id="edge3" class="edge">
<title>c&#45;&gt;signals</title>
<path fill="none" stroke="black" d="M301.55,-587.34C312.06,-577.62 325.36,-565.32 336.89,-554.65"/>
<polygon fill="black" stroke="black" points="339.58,-556.93 344.55,-547.57 334.83,-551.79 339.58,-556.93"/>
</g>
<!-- database -->
<g id="node11" class="node">
<title>database</title>
<path fill="#b7d6d9" stroke="black" d="M416,-446.23C416,-448.03 399.42,-449.5 379,-449.5 358.58,-449.5 342,-448.03 342,-446.23 342,-446.23 342,-416.77 342,-416.77 342,-414.97 358.58,-413.5 379,-413.5 399.42,-413.5 416,-414.97 416,-416.77 416,-416.77 416,-446.23 416,-446.23"/>
<path fill="none" stroke="black" d="M416,-446.23C416,-444.42 399.42,-442.95 379,-442.95 358.58,-442.95 342,-444.42 342,-446.23"/>
<text text-anchor="middle" x="379" y="-427.8" font-family="Helvetica,sans-Serif" font-size="14.00">database</text>
</g>
<!-- signals&#45;&gt;database -->
<g id="edge11" class="edge">
<title>signals&#45;&gt;database</title>
<path fill="none" stroke="black" d="M365.86,-511.34C368.25,-497 371.7,-476.31 374.46,-459.72"/>
<polygon fill="black" stroke="black" points="377.97,-459.95 376.16,-449.51 371.07,-458.8 377.97,-459.95"/>
</g>
<!-- note2 -->
<g id="node7" class="node">
<title>note2</title>
<polygon fill="lightyellow" stroke="black" points="231.5,-627 46.5,-627 46.5,-584 237.5,-584 237.5,-621 231.5,-627"/>
<polyline fill="none" stroke="black" points="231.5,-627 231.5,-621 "/>
<polyline fill="none" stroke="black" points="237.5,-621 231.5,-621 "/>
<text text-anchor="start" x="60.5" y="-601.8" font-family="Helvetica,sans-Serif" font-size="14.00">Run processing on spark. </text>
</g>
<!-- signals2 -->
<g id="node10" class="node">
<title>signals2</title>
<polygon fill="none" stroke="black" points="522,-511.5 522,-547.5 590,-547.5 590,-511.5 522,-511.5"/>
<text text-anchor="middle" x="556" y="-525.8" font-family="Helvetica,sans-Serif" font-size="14.00">signals2</text>
</g>
<!-- e&#45;&gt;signals2 -->
<g id="edge5" class="edge">
<title>e&#45;&gt;signals2</title>
<path fill="none" stroke="black" d="M605.92,-587.34C597.56,-577.81 587,-565.79 577.75,-555.26"/>
<polygon fill="black" stroke="black" points="580.22,-552.77 570.99,-547.57 574.96,-557.39 580.22,-552.77"/>
</g>
<!-- d&#45;&gt;signals2 -->
<g id="edge4" class="edge">
<title>d&#45;&gt;signals2</title>
<path fill="none" stroke="black" d="M550.62,-587.34C551.45,-578.56 552.48,-567.66 553.42,-557.77"/>
<polygon fill="black" stroke="black" points="556.93,-557.86 554.39,-547.57 549.96,-557.2 556.93,-557.86"/>
</g>
<!-- signals2&#45;&gt;database -->
<g id="edge12" class="edge">
<title>signals2&#45;&gt;database</title>
<path fill="none" stroke="black" d="M533.73,-511.32C520.78,-501.76 503.92,-490 488,-481 468.16,-469.79 445.25,-459.26 425.56,-450.9"/>
<polygon fill="black" stroke="black" points="426.76,-447.61 416.19,-446.97 424.06,-454.06 426.76,-447.61"/>
</g>
<!-- app -->
<g id="node13" class="node">
<title>app</title>
<polygon fill="none" stroke="black" points="352,-276.5 352,-312.5 406,-312.5 406,-276.5 352,-276.5"/>
<text text-anchor="middle" x="379" y="-290.8" font-family="Helvetica,sans-Serif" font-size="14.00">app</text>
</g>
<!-- database&#45;&gt;app -->
<g id="edge13" class="edge">
<title>database&#45;&gt;app</title>
<path fill="none" stroke="black" d="M379,-413.4C379,-390.6 379,-349.98 379,-322.89"/>
<polygon fill="black" stroke="black" points="382.5,-322.89 379,-312.89 375.5,-322.89 382.5,-322.89"/>
</g>
<!-- note3 -->
<g id="node12" class="node">
<title>note3</title>
<polygon fill="lightyellow" stroke="black" points="318,-453 200,-453 200,-410 324,-410 324,-447 318,-453"/>
<polyline fill="none" stroke="black" points="318,-453 318,-447 "/>
<polyline fill="none" stroke="black" points="324,-447 318,-447 "/>
<text text-anchor="start" x="214" y="-427.8" font-family="Helvetica,sans-Serif" font-size="14.00">Store the data. </text>
</g>
<!-- gateway -->
<g id="node14" class="node">
<title>gateway</title>
<polygon fill="none" stroke="black" points="336.5,-200.5 336.5,-236.5 405.5,-236.5 405.5,-200.5 336.5,-200.5"/>
<text text-anchor="middle" x="371" y="-214.8" font-family="Helvetica,sans-Serif" font-size="14.00">gateway</text>
</g>
<!-- app&#45;&gt;gateway -->
<g id="edge14" class="edge">
<title>app&#45;&gt;gateway</title>
<path fill="none" stroke="black" d="M377.14,-276.34C376.2,-267.56 375.02,-256.66 373.95,-246.77"/>
<polygon fill="black" stroke="black" points="377.4,-246.14 372.85,-236.57 370.44,-246.89 377.4,-246.14"/>
</g>
<!-- cli -->
<g id="node16" class="node">
<title>cli</title>
<polygon fill="none" stroke="black" points="416,-49 416,-85 470,-85 470,-49 416,-49"/>
<text text-anchor="middle" x="443" y="-63.3" font-family="Helvetica,sans-Serif" font-size="14.00">cli</text>
</g>
<!-- gateway&#45;&gt;cli -->
<g id="edge15" class="edge">
<title>gateway&#45;&gt;cli</title>
<path fill="none" stroke="black" d="M383.66,-200.07C391.05,-189.41 400.23,-175.31 407,-162 418.15,-140.08 427.92,-113.86 434.46,-94.69"/>
<polygon fill="black" stroke="black" points="437.81,-95.69 437.66,-85.1 431.17,-93.48 437.81,-95.69"/>
</g>
<!-- apps -->
<g id="node17" class="node">
<title>apps</title>
<polygon fill="none" stroke="black" points="344,-49 344,-85 398,-85 398,-49 344,-49"/>
<text text-anchor="middle" x="371" y="-63.3" font-family="Helvetica,sans-Serif" font-size="14.00">apps</text>
</g>
<!-- gateway&#45;&gt;apps -->
<g id="edge16" class="edge">
<title>gateway&#45;&gt;apps</title>
<path fill="none" stroke="black" d="M371,-200.35C371,-174.69 371,-126.06 371,-95.43"/>
<polygon fill="black" stroke="black" points="374.5,-95.41 371,-85.41 367.5,-95.41 374.5,-95.41"/>
</g>
<!-- developer -->
<g id="node18" class="node">
<title>developer</title>
<polygon fill="none" stroke="black" points="248,-49 248,-85 326,-85 326,-49 248,-49"/>
<text text-anchor="middle" x="287" y="-63.3" font-family="Helvetica,sans-Serif" font-size="14.00">developer</text>
</g>
<!-- gateway&#45;&gt;developer -->
<g id="edge17" class="edge">
<title>gateway&#45;&gt;developer</title>
<path fill="none" stroke="black" d="M359.18,-200.29C351.92,-189.47 342.58,-175.13 335,-162 322.12,-139.71 308.92,-113.57 299.63,-94.52"/>
<polygon fill="black" stroke="black" points="302.66,-92.74 295.15,-85.26 296.36,-95.79 302.66,-92.74"/>
</g>
<!-- note5 -->
<g id="node15" class="node">
<title>note5</title>
<polygon fill="lightyellow" stroke="black" points="328,-316 228,-316 228,-273 334,-273 334,-310 328,-316"/>
<polyline fill="none" stroke="black" points="328,-316 328,-310 "/>
<polyline fill="none" stroke="black" points="334,-310 328,-310 "/>
<text text-anchor="start" x="242" y="-290.8" font-family="Helvetica,sans-Serif" font-size="14.00">Secure API. </text>
</g>
<!-- note6 -->
<g id="node19" class="node">
<title>note6</title>
<polygon fill="lightyellow" stroke="black" points="223.5,-96 38.5,-96 38.5,-38 229.5,-38 229.5,-90 223.5,-96"/>
<polyline fill="none" stroke="black" points="223.5,-96 223.5,-90 "/>
<polyline fill="none" stroke="black" points="229.5,-90 223.5,-90 "/>
<text text-anchor="start" x="52.5" y="-70.8" font-family="Helvetica,sans-Serif" font-size="14.00">Users can be developers, </text>
<text text-anchor="start" x="52.5" y="-55.8" font-family="Helvetica,sans-Serif" font-size="14.00">other applications or cli. </text>
</g>
</g>
</svg>
